<svg width="22" height="22" viewBox="0 0 22 22" fill="none" xmlns="http://www.w3.org/2000/svg">
<path fill-rule="evenodd" clip-rule="evenodd" d="M3.06367 0.25L6.81459 0.25C7.12696 0.25 7.40662 0.443609 7.51659 0.735986L8.97202 4.60588C9.0202 4.73398 9.03241 4.87281 9.00733 5.00735L8.27804 8.91931C9.17441 11.0273 10.655 12.4439 13.1107 13.7146L16.9756 12.9657C17.1128 12.9391 17.2548 12.9514 17.3854 13.0012L21.2671 14.4804C21.5579 14.5912 21.7501 14.87 21.7501 15.1812L21.7501 18.7655C21.7501 20.391 20.3179 21.7101 18.6426 21.3456C15.589 20.6811 9.93174 18.9923 5.96974 15.0303C2.17461 11.2352 0.903061 5.99252 0.475026 3.15869C0.230792 1.54172 1.5276 0.25 3.06367 0.25ZM6.29537 1.75L3.06367 1.75C2.34465 1.75 1.86564 2.32183 1.9582 2.93467C2.37098 5.66748 3.5786 10.5179 7.0304 13.9697C10.6788 17.6181 15.9826 19.2317 18.9615 19.8799C19.6158 20.0222 20.2501 19.524 20.2501 18.7655L20.2501 15.698L17.0511 14.479L13.1428 15.2363C12.9801 15.2678 12.8117 15.2446 12.6636 15.1703C9.76939 13.7176 7.89045 11.9954 6.80372 9.27854C6.75093 9.14656 6.73673 9.00229 6.76278 8.86255L7.49439 4.9381L6.29537 1.75Z" fill="#33836E"/>
</svg>
